<svg id="icons" xmlns="http://www.w3.org/2000/svg" viewBox="0 0 64 64"><defs><style>.cls-1{fill:none;stroke:#000;stroke-linecap:round;stroke-linejoin:round;stroke-width:2px;}</style></defs><g id="gladiolus"><path class="cls-1" d="M32,60a19.06,19.06,0,0,1,1.38-7.82A14,14,0,0,1,39,45.63c3.24-2,9.22-6.18,12.35-11.25A12.44,12.44,0,0,1,52,37.45,14.68,14.68,0,0,1,43.22,52C40,53.38,35.28,56,32,60Z"/><path class="cls-1" d="M32,60a19.06,19.06,0,0,0-1.38-7.82A14,14,0,0,0,25,45.63c-3.24-2-9.22-6.18-12.35-11.25A12.44,12.44,0,0,0,12,37.45,14.68,14.68,0,0,0,20.78,52C24,53.38,28.72,56,32,60Z"/><path class="cls-1" d="M31.81,11.34c-2.93-5.25-9.46-7.17-9.46-7.17V21.72a5,5,0,0,0,1.78,3.83h0a12.29,12.29,0,0,0,15.74,0h0a5,5,0,0,0,1.78-3.83V4.17S25.81,10.63,25.81,26.72"/><path class="cls-1" d="M36.67,7,35.11,5.32a3.92,3.92,0,0,0-6,.19L27.87,7"/><line class="cls-1" x1="32" y1="60" x2="32" y2="28.4"/></g></svg>