<svg width="52" height="50" viewBox="0 0 52 50" fill="none" xmlns="http://www.w3.org/2000/svg">
<path d="M19.3361 6.04022V2.01341C19.3361 0.897644 18.4125 0 17.2644 0C16.1163 0 15.1927 0.897644 15.1927 2.01341V6.04022C15.1927 7.15599 16.1163 8.05363 17.2644 8.05363C18.4125 8.05363 19.3361 7.15599 19.3361 6.04022ZM2.07173 18.7918H6.21518C7.36326 18.7918 8.28691 17.8942 8.28691 16.7784C8.28691 15.6626 7.36326 14.765 6.21518 14.765H2.07173C0.923645 14.765 0 15.6626 0 16.7784C0 17.8942 0.923645 18.7918 2.07173 18.7918ZM23.609 10.6123C24.4205 11.4009 25.7326 11.4009 26.5354 10.6123L29.4617 7.7684C30.2731 6.97981 30.2731 5.70466 29.4617 4.92446C28.6502 4.14426 27.3382 4.13588 26.5354 4.92446L23.609 7.76001C22.7976 8.54859 22.7976 9.82375 23.609 10.6039V10.6123ZM7.98478 28.6491L10.9111 25.8052C11.7225 25.0166 11.7225 23.7414 10.9111 22.9612C10.0997 22.181 8.78757 22.1727 7.98478 22.9612L5.05846 25.7968C4.24704 26.5854 4.24704 27.8605 5.05846 28.6407C5.86989 29.4209 7.18198 29.4293 7.98478 28.6407V28.6491ZM5.05846 4.91607C4.24704 5.70466 4.24704 6.97981 5.05846 7.76001L7.98478 10.6039C8.7962 11.3925 10.1083 11.3925 10.9111 10.6039C11.7139 9.81536 11.7225 8.54021 10.9111 7.76001L7.98478 4.91607C7.17335 4.12749 5.86989 4.12749 5.05846 4.91607ZM29.7724 19.4042L42.902 22.827C43.4545 22.9696 43.8602 23.4394 43.9206 23.9931L44.5421 30.2011L24.5586 24.9998L28.2877 19.9243C28.6244 19.4713 29.2113 19.2616 29.7724 19.4042ZM18.611 23.8589L18.4297 24.1022C16.5565 24.5636 14.9855 25.973 14.4503 27.9193C14.0964 29.2196 13.3799 31.8118 12.3095 35.696L11.593 38.2883C11.196 39.7229 12.0764 41.191 13.5439 41.5769L14.8819 41.9208C16.358 42.3067 17.8686 41.451 18.2657 40.0249L18.9822 37.4326L42.997 43.6826L42.2805 46.2748C41.8834 47.7094 42.7639 49.1775 44.2314 49.5634L45.5693 49.9073C47.0455 50.2933 48.5561 49.4376 48.9532 48.0114C49.3071 46.7111 50.0236 44.1188 51.094 40.2346L51.8104 37.6423C52.3456 35.696 51.7155 33.7162 50.3257 32.3991L50.2998 32.0971L49.4366 23.4562C49.1603 20.671 47.1318 18.3472 44.3522 17.6257L31.2054 14.2197C28.4258 13.4982 25.4736 14.5217 23.799 16.8036L18.6024 23.8673L18.611 23.8589ZM22.8149 28.7078C23.7817 28.9427 24.5413 29.6642 24.8089 30.6038C25.0679 31.5434 24.7917 32.5417 24.0838 33.2212C23.376 33.9008 22.3401 34.1608 21.3819 33.8924C20.4151 33.6575 19.6555 32.936 19.3879 31.9964C19.1289 31.0568 19.4052 30.0585 20.113 29.379C20.8208 28.6994 21.8567 28.4394 22.8149 28.7078ZM40.7785 36.1658C41.0202 35.2262 41.7625 34.488 42.7294 34.2279C43.6962 33.9763 44.7234 34.2447 45.4226 34.9326C46.1218 35.6205 46.3894 36.6272 46.1132 37.5584C45.8715 38.498 45.1291 39.2363 44.1623 39.4963C43.1955 39.748 42.1683 39.4796 41.4691 38.7917C40.7698 38.1037 40.5022 37.097 40.7785 36.1658Z" fill="#333333"/>
</svg>
