<svg width="56" height="56" viewBox="0 0 56 56" fill="none" xmlns="http://www.w3.org/2000/svg">
<path d="M5.89474 0C2.64342 0 0 2.95441 0 6.58824V46.1176C0 49.7515 2.64342 52.7059 5.89474 52.7059H28.8566C28.3039 51.1824 28 49.5147 28 47.7647C28 45.9426 28.6632 44.2956 29.7316 43.1015C28.6355 41.1044 28 38.7471 28 36.2353C28 34.4132 28.6632 32.7662 29.7316 31.5721C28.6355 29.575 28 27.2176 28 24.7059C28 22.1118 29.3355 19.8779 31.2789 18.7971C31.0579 18.0662 30.9474 17.2838 30.9474 16.4706V13.1765C30.9474 9.95441 32.7895 7.21618 35.3592 6.18676C35.175 2.73823 32.6053 0 29.4737 0H5.89474ZM16.2105 36.2353H19.1579C20.7882 36.2353 22.1053 37.7074 22.1053 39.5294V47.7647H13.2632V39.5294C13.2632 37.7074 14.5803 36.2353 16.2105 36.2353ZM8.8421 11.5294C8.8421 10.6235 9.50526 9.88235 10.3158 9.88235H13.2632C14.0737 9.88235 14.7368 10.6235 14.7368 11.5294V14.8235C14.7368 15.7294 14.0737 16.4706 13.2632 16.4706H10.3158C9.50526 16.4706 8.8421 15.7294 8.8421 14.8235V11.5294ZM22.1053 9.88235H25.0526C25.8632 9.88235 26.5263 10.6235 26.5263 11.5294V14.8235C26.5263 15.7294 25.8632 16.4706 25.0526 16.4706H22.1053C21.2947 16.4706 20.6316 15.7294 20.6316 14.8235V11.5294C20.6316 10.6235 21.2947 9.88235 22.1053 9.88235ZM8.8421 24.7059C8.8421 23.8 9.50526 23.0588 10.3158 23.0588H13.2632C14.0737 23.0588 14.7368 23.8 14.7368 24.7059V28C14.7368 28.9059 14.0737 29.6471 13.2632 29.6471H10.3158C9.50526 29.6471 8.8421 28.9059 8.8421 28V24.7059ZM22.1053 23.0588H25.0526C25.8632 23.0588 26.5263 23.8 26.5263 24.7059V28C26.5263 28.9059 25.8632 29.6471 25.0526 29.6471H22.1053C21.2947 29.6471 20.6316 28.9059 20.6316 28V24.7059C20.6316 23.8 21.2947 23.0588 22.1053 23.0588ZM54.5263 23.0588H53.0526C48.9816 23.0588 45.6842 26.7441 45.6842 31.2941C45.6842 32.2 46.3474 32.9412 47.1579 32.9412H48.6316C52.7026 32.9412 56 29.2559 56 24.7059C56 23.8 55.3368 23.0588 54.5263 23.0588ZM56 36.2353C56 35.3294 55.3368 34.5882 54.5263 34.5882H53.0526C48.9816 34.5882 45.6842 38.2735 45.6842 42.8235C45.6842 43.7294 46.3474 44.4706 47.1579 44.4706H48.6316C52.7026 44.4706 56 40.7853 56 36.2353ZM56 47.7647C56 46.8588 55.3368 46.1176 54.5263 46.1176H53.0526C48.9816 46.1176 45.6842 49.8029 45.6842 54.3529C45.6842 55.2588 46.3474 56 47.1579 56H48.6316C52.7026 56 56 52.3147 56 47.7647ZM42.7368 54.3529C42.7368 49.8029 39.4395 46.1176 35.3684 46.1176H33.8947C33.0842 46.1176 32.4211 46.8588 32.4211 47.7647C32.4211 52.3147 35.7184 56 39.7895 56H41.2632C42.0737 56 42.7368 55.2588 42.7368 54.3529ZM41.2632 44.4706C42.0737 44.4706 42.7368 43.7294 42.7368 42.8235C42.7368 38.2735 39.4395 34.5882 35.3684 34.5882H33.8947C33.0842 34.5882 32.4211 35.3294 32.4211 36.2353C32.4211 40.7853 35.7184 44.4706 39.7895 44.4706H41.2632ZM42.7368 31.2941C42.7368 26.7441 39.4395 23.0588 35.3684 23.0588H33.8947C33.0842 23.0588 32.4211 23.8 32.4211 24.7059C32.4211 29.2559 35.7184 32.9412 39.7895 32.9412H41.2632C42.0737 32.9412 42.7368 32.2 42.7368 31.2941ZM44.2105 6.58824C42.9855 6.58824 42 7.68971 42 9.05882V19.7647C42 21.1338 42.9855 22.2353 44.2105 22.2353C45.4355 22.2353 46.4211 21.1338 46.4211 19.7647V9.05882C46.4211 7.68971 45.4355 6.58824 44.2105 6.58824ZM53.0526 13.1765C53.0526 11.8074 52.0671 10.7059 50.8421 10.7059C49.6171 10.7059 48.6316 11.8074 48.6316 13.1765V16.4706C48.6316 17.8397 49.6171 18.9412 50.8421 18.9412C52.0671 18.9412 53.0526 17.8397 53.0526 16.4706V13.1765ZM37.5789 10.7059C36.3539 10.7059 35.3684 11.8074 35.3684 13.1765V16.4706C35.3684 17.8397 36.3539 18.9412 37.5789 18.9412C38.8039 18.9412 39.7895 17.8397 39.7895 16.4706V13.1765C39.7895 11.8074 38.8039 10.7059 37.5789 10.7059Z" fill="#333333"/>
</svg>
