<?xml version="1.0" encoding="UTF-8"?>
<svg id="Layer_1" data-name="Layer 1" xmlns="http://www.w3.org/2000/svg" xmlns:xlink="http://www.w3.org/1999/xlink" viewBox="0 0 123.87 123.87">
  <defs>
    <style>
      .cls-1 {
        clip-path: url(#clippath);
      }

      .cls-2 {
        fill: none;
      }

      .cls-2, .cls-3 {
        stroke-width: 0px;
      }

      .cls-3 {
        fill: #37a904;
      }
    </style>
    <clipPath id="clippath">
      <rect class="cls-2" width="123.87" height="123.87"/>
    </clipPath>
  </defs>
  <g class="cls-1">
    <path class="cls-3" d="M0,65.81v-7.75c.06-.24.14-.48.17-.74.22-1.86.32-3.73.66-5.57C4.47,32.24,14.94,17.55,32.26,7.75c1.72-.98,3.56-1.75,5.38-2.64.45.76.87,1.34,1.17,1.97,2.44,5.06,6.12,9.05,10.69,12.26,1.9,1.33,3.24,3.16,4.58,5.25-1.33-.48-2.48-.89-3.63-1.28-5.68-1.94-11.48-3.26-17.53-3.2-.74,0-1.1.19-.89,1.01.26.06.51.12.76.16,3.98.73,7.86,1.77,11.61,3.31,8.57,3.51,15.17,9.2,19.31,17.56,2.14,4.33,2.58,8.75.42,13.21-.5,1.03-.61,2.07-.24,3.09.49,1.32,1.09,2.61,1.76,3.85.87,1.62,1.88,3.15,2.77,4.77.98,1.79.57,3.22-1.21,4-1.5.65-2.03,1.76-2.05,3.28,0,.83.02,1.7-.16,2.5-.6,2.6-1.23,5.2-1.95,7.77-.73,2.62-2.43,3.56-5.15,3.19-1.56-.22-3.15-.36-4.72-.3-2.12.07-3.79,1.12-4.68,3.08-1.36,2.99-1.97,6.19-1.63,9.42.23,2.07,1.04,4.1,1.77,6.09,1.42,3.86,2.98,7.67,4.52,11.62.29-.39.52-.65.7-.94,3.33-5.25,6.73-10.47,9.97-15.78,2.03-3.33,3.9-6.75,5.7-10.21,1.46-2.81,3.59-4.35,6.8-4.47,1.87-.07,3.73-.32,5.6-.47,5.62-.44,11.22-.44,16.71,1.15,2.53.73,4.79.12,6.44-1.96,1.51-1.91,2.93-3.93,4.26-5.98,1.42-2.19.9-3.92-1.4-5.22-1.32-.74-2.64-1.49-3.93-2.29-5.9-3.63-11.28-7.96-16.54-12.43-4.55-3.86-9.09-7.75-13.6-11.65-.41-.36-.62-.94-.93-1.42.06-.11.13-.23.19-.34,1.51,0,3.02-.03,4.53,0,6.33.15,12.65.37,18.98.44,5.48.06,9.56-2.3,11.86-7.4.25-.56.35-1.18.56-1.88-.27.08-.35.08-.38.12-.31.29-.6.59-.9.88-4.8,4.7-10.45,6.97-17.22,6.1-4.27-.55-8.26-1.99-12.17-3.71-.03-.02-.02-.09-.05-.17,4.84-1.18,9.42-2.92,13.42-5.98,3.82-2.92,8.2-9.1,8.33-11.85-6.04,7.29-13.37,12.12-23.23,12.79.33-.43.54-.66.72-.92,1.62-2.37,3.42-4.63,4.8-7.12,2.27-4.1,3.37-8.5,2.18-13.21-.06-.23-.29-.4-.44-.61-.17.22-.46.42-.49.65-.19,1.31-.29,2.63-.45,3.94-.79,6.57-6.08,14.03-16,12.81-2.39-.29-4.15-1.45-5.13-3.72-1.04-2.43-1.08-4.87.19-7.17.8-1.45,1.81-2.82,2.9-4.09,3.06-3.56,5.74-7.38,7.99-11.49,1.18-2.15,1.95-2.5,4.32-1.88,11.29,2.99,21.07,8.59,29.06,17.09,15.17,16.13,20.19,35.29,15.47,56.67-4.44,20.09-16.63,34.3-35.56,42.5-12.11,5.24-24.76,6.58-37.72,3.83-12.28-2.61-22.78-8.51-31.46-17.55C7.93,95.05,2.37,83.5.56,70.18c-.19-1.45-.37-2.92-.56-4.37Z"/>
    <path class="cls-3" d="M65.91,0c1.21.36,2.44.7,3.76,1.09-1.66,5.19-5.1,8.78-9.62,11.6-1.56-2.21-1.84-4.56-1.38-6.99.36-1.92.94-3.8,1.42-5.69h5.82Z"/>
    <path class="cls-3" d="M53.05,11.53c-3.36.62-7.96-3.59-9.21-8.3,3.92-1.38,9.18,3.29,9.21,8.3Z"/>
  </g>
</svg>