<svg width="42" height="37" viewBox="0 0 42 37" fill="none" xmlns="http://www.w3.org/2000/svg">
<path d="M10.4 0H13C14.4381 0 15.6 1.16188 15.6 2.6V5.2H7.8V2.6C7.8 1.16188 8.96187 0 10.4 0ZM15.6 7.8V33.8C15.6 35.2381 14.4381 36.4 13 36.4H2.6C1.16187 36.4 0 35.2381 0 33.8V28.9981C0 26.1869 0.76375 23.4244 2.21 21.0113C3.32312 19.1588 4.03813 17.095 4.30625 14.95L4.91562 10.075C5.07812 8.775 6.18313 7.8 7.49937 7.8H15.6081H15.6ZM34.1087 7.8C35.4169 7.8 36.53 8.775 36.6925 10.075L37.2937 14.95C37.5619 17.095 38.2769 19.1588 39.39 21.0113C40.8362 23.4244 41.6 26.1869 41.6 28.9981V33.8C41.6 35.2381 40.4381 36.4 39 36.4H28.6C27.1619 36.4 26 35.2381 26 33.8V7.8H34.1087ZM26 2.6C26 1.16188 27.1619 0 28.6 0H31.2C32.6381 0 33.8 1.16188 33.8 2.6V5.2H26V2.6ZM23.4 7.8V20.8H18.2V7.8H23.4Z" fill="#333333"/>
</svg>
